<svg 
  width="167" 
  height="127" 
  viewBox="242 205 161 120" 
  xmlns="http://www.w3.org/2000/svg"
>
  <path d="M363,204 C385.09139,204 403,221.90861 403,244 L403,285 C403,307.09139 385.09139,325 363,325 L268.893103,325 C262.210458,325 256.793103,319.582645 256.793103,312.9 C256.793103,306.969363 261.059813,302.03527 266.691063,300.999889 L320.833333,301 C327.552798,301 333,295.552798 333,288.833333 C333,282.113869 327.552798,276.666667 320.833333,276.666667 L320.833333,276.666667 L296.793,276.666 L296.793,276.6 L285.789655,276.6 C279.10701,276.6 273.689655,271.182645 273.689655,264.5 C273.689655,257.817355 279.10701,252.4 285.789655,252.4 L296.793,252.4 L296.793,252.333 L300.131579,252.333333 C306.749233,252.333333 312.132887,247.049947 312.294509,240.471206 L312.298246,240.166667 C312.298246,233.447202 306.851043,228 300.131579,228 L300.131579,228 L252.903969,228.001214 C247.269745,226.96824 243,222.032746 243,216.1 C243,209.417355 248.417355,204 255.1,204 L363,204 Z" />
</svg>
